<svg xmlns="http://www.w3.org/2000/svg" viewBox="0 0 58.5 43.2"><style>.st0{fill:#ffffff}</style><path class="st0" d="M58.4 1.6c0-.1 0-.3-.1-.4-.1-.1-.1-.3-.2-.4-.1-.1-.1-.2-.1-.2-.1-.1-.2-.2-.4-.3-.1 0-.1-.1-.2-.1s-.2 0-.3-.1c-.1 0-.3-.1-.4-.1H1.9c-.2 0-.4.1-.5.1-.1 0-.2 0-.2.1C1 .2 1 .3.9.3.8.4.6.5.5.6.4.7.4.8.4.8c-.1.1-.2.3-.3.4 0 .1-.1.3-.1.4v39.8c0 .1 0 .2.1.3 0 .1 0 .3.1.4.1.1.1.2.2.4 0 .1.1.2.1.2.2.2.4.3.6.4h.1c.2.1.5.2.7.2h54.7c.3 0 .5-.1.7-.2h.1c.2-.1.4-.2.6-.4.1-.1.1-.2.1-.2.1-.1.2-.2.2-.4 0-.1.1-.3.1-.4 0-.1.1-.2.1-.3V1.9c0-.1-.1-.2-.1-.3zm-6.6 2.2L29.2 24.6 6.7 3.8h45.1zm-48 2.4l16.7 15.4L3.8 37V6.2zm2.9 33.3l16.6-15.3 4.7 4.4c.4.3.8.5 1.3.5s.9-.2 1.3-.5l4.7-4.4 16.6 15.3H6.7zm48-2.5L38 21.6 54.7 6.2V37z"/></svg>