<svg xmlns="http://www.w3.org/2000/svg" viewBox="0 0 166.7 196.6"><path fill="#fff" d="M44.3 7l3.6 36.1L67 28.4 52.1 47.7 89 51.4l-36.1 4.2 13.8 18.7-19-15.3-3.4 49.3-4.2-48.7L20.4 75l16.1-19.6-36.5-4 36.1-3.5-15.5-19.7 20.1 15.7zM109.9 68l4.6 45.8 24.3-18.6-18.9 24.5 46.8 4.6-45.8 5.3 17.4 23.8-24-19.4-4.4 62.6-5.3-61.9-25 19.6 20.4-24.9-46.3-5.1 45.8-4.4-19.6-25 25.4 19.9zM121.9 0l2.1 20.6 10.9-8.4-8.5 11 21 2-20.6 2.4 7.8 10.7-10.7-8.7-2 28.1-2.4-27.8-11.2 8.8 9.1-11.2-20.7-2.3 20.5-1.9-8.8-11.2 11.4 8.9z"/></svg>