<svg id="Layer_1" xmlns="http://www.w3.org/2000/svg" viewBox="0 0 86.2 76.7"><style>.st0{fill:#e8dcae}</style><path class="st0" d="M84.6 43.3c-2.1-1.9-7.2-6.2-8.1-6.3-.8-.1-3 .2-5.3.5.4-1.5.5-3 .4-4.6l-1.3-7.8c0-.4 1-.7 1-.7s3 3.6 4.7 5c.2.2.3 2 1.2 2.2 1 .2 2.7.5 2.8-1.4 0 0-2-11.1-3.1-12.6-.4-.5-.7-.9-1.1-1.3 1.5 0 2.9.9 3.5 2.3v-.8c-.3-2-2.1-3.3-4.1-3.1L84.5 0 73 13.7c-3.8-2.1-8.6-2-12.5.6-4.4-.2-8.1 3.2-8.3 7.5V23c.6-2.9 2.7-5.1 5.4-6-.7.9-1.2 2-1.6 3-2.8 1.9-4 5.2-3.3 8.4-2.9 2.7-8.2 4.8-16.3 5.3-1.6.1-4.6.9-7 2.8l-1-1C24.9 31 18.7 29 13 30.9h-.1c-4.8-1.6-10 1.1-11.5 5.9-.1.5-.3.9-.3 1.4 1.5-3 4.6-4.9 7.9-5-1.1.8-2 1.8-2.7 2.9-4.8 1.6-7.4 6.7-5.9 11.5.1.5.3.9.5 1.3-.5-3.2.8-6.5 3.2-8.5-.5 1.7-.6 3.5-.4 5.2-1.1 2.9-.6 6.4 1.5 9 .3.4.6.7 1 1-1-1.7-.7-7.7-.4-8.4.2 3.1 1.4 6.1 3.7 8.5.5.5 1 1 1.6 1.4C7.3 51.6 8 44 13 39.2c.1-.1.2-.1.3-.2-.4 1.6-.3 3.3.3 5 .2.5.3.9.6 1.3-.6-3.4.8-6.9 3.5-8.9 2.4-.9 5-1.1 7.5-.6 1.1.5 2.1 1.2 3 2.1-2.1 2.4-3.3 6.1-1.6 11.4.4 1.1 2.1 3.4 1.7 5-.4 1.4-6.2 4-7 5.9-.6 1.3 2.6 12.1 2.9 13 0 0 0 .1.1.1.2.3.3.8.2 1.2v1.2c0 .6 0 .9.6 1l2.9-.2c.1 0 .2-.4 0-.7l-1.3-2.4s-.3-.5-.3-.6l-.5-1.9v-.1l-.8-7.4c-.1-.6.4-1.1 1-1.1l-.1.1c-.4.4-.4.9-.1 1.3 1.2 1.7 4.7 8.2 4.8 8.3l1.3 1.3c.2.2.4.5.4.7l.1 1.2c0 .6.5 1 1.1 1l2.8-.1c.1 0 .1-.5 0-.5l-2-2.3-.1-.1-1-1.8-.8-1.6s0-.1-.1-.1l-2.2-5.9c-.2-.4-.1-.8.3-1.1 1.8-1.7 8.4-5.3 10-6.9.5-.5.9-1 1.1-1.4 1-1.6.8-2.6 2.2-2.7 9.1-.6 16.2-2.7 20.6-5.4 0 .1.1.1.1.2 1.7.7 9.4 3.8 9.9 4.4.8.8 1.1 7.9 1.1 8.9 0 .1 0 .2-.1.2l-1.5.7c-.1.1-.2.2-.1.3l1.6 2.1c.1.1.2.1.3 0l1-.7c.6-.4 1-1.2 1-1.9.1-2.9 0-10.2-.5-10.9-.8-1.2-6.1-5.5-7.8-6.8 2.6-1.3 5.6-2.7 6.1-2.7 1.2 0 6.7 4 7.5 4.5.1 0 .1.1.1.2l.1 1.9c0 .1.1.2.2.2l2.5-.2c.3-.1.3-.2.3-.4-.3-.7-1.2-2.6-1.6-3zM55.3 24.7l-.6 1.2c-.2.3-.4.7-.7 1.1.2-1 .7-2 1.3-2.8v.5z"/></svg>