<?xml version="1.0" standalone="no"?>
<!DOCTYPE svg PUBLIC "-//W3C//DTD SVG 20010904//EN"
 "http://www.w3.org/TR/2001/REC-SVG-20010904/DTD/svg10.dtd">
<svg version="1.0" xmlns="http://www.w3.org/2000/svg"
 width="234.000000pt" height="234.000000pt" viewBox="0 0 234.000000 234.000000"
 preserveAspectRatio="xMidYMid meet">
<metadata>
Created by potrace 1.14, written by Peter Selinger 2001-2017
</metadata>
<g transform="translate(0.000000,234.000000) scale(0.100000,-0.100000)"
fill="#000000" stroke="none">
<path d="M1236 2282 c-2 -4 -42 -6 -88 -5 -87 1 -128 -7 -242 -47 -99 -35
-165 -103 -230 -235 -46 -93 -50 -106 -50 -175 0 -74 13 -231 20 -239 2 -2 -6
-19 -17 -38 -23 -36 -28 -117 -10 -151 6 -11 8 -22 4 -25 -3 -4 10 -28 29 -55
19 -26 41 -65 47 -85 7 -20 25 -46 41 -57 40 -29 73 -78 77 -114 16 -151 1
-382 -29 -440 -35 -67 -80 -105 -186 -156 -59 -28 -134 -64 -167 -80 -33 -16
-98 -46 -145 -67 -47 -20 -103 -49 -126 -64 -48 -32 -109 -98 -119 -128 -3
-12 -10 -21 -13 -21 -9 0 -36 -89 -30 -95 3 -3 512 -4 1131 -3 l1127 3 -14 27
c-9 16 -11 30 -5 33 5 4 8 14 8 23 -1 15 -2 15 -6 -1 -2 -9 -8 -17 -11 -17 -4
0 -29 27 -57 60 -27 34 -64 74 -83 91 -43 40 -138 87 -184 93 -20 2 -45 7 -55
10 -23 7 -64 15 -132 27 -29 5 -84 20 -121 33 -38 14 -71 22 -73 19 -3 -3 -15
-2 -27 2 -20 6 -22 12 -18 60 4 45 9 57 40 84 37 32 102 146 93 162 -15 23
109 222 133 214 7 -3 10 0 7 6 -4 5 -2 15 3 22 31 40 65 193 65 296 0 38 5 60
17 73 9 10 23 36 30 58 7 22 16 37 20 35 7 -5 50 87 50 108 0 7 6 22 14 33 10
13 11 23 4 31 -7 9 -6 14 4 18 9 4 14 18 13 35 -1 16 2 35 6 42 4 7 2 19 -4
27 -9 12 -9 13 1 7 6 -4 12 -2 12 3 0 6 -6 11 -12 11 -10 0 -9 3 1 9 9 6 10
11 2 15 -6 4 -9 12 -6 17 4 5 3 15 -2 22 -4 6 -8 14 -9 17 -6 29 -112 241
-134 267 -35 43 -111 94 -181 123 -41 17 -83 35 -94 40 -32 13 -58 21 -85 26
-14 2 -45 8 -70 13 -56 10 -158 12 -164 3z"/>
<path d="M2269 93 c-3 -18 -3 -31 -1 -28 3 3 12 -1 21 -8 14 -10 14 -10 4 3
-6 8 -13 26 -15 40 -3 23 -4 22 -9 -7z"/>
</g>
</svg>
